<?xml version="1.0" encoding="UTF-8"?>
<svg id="Warstwa_2" data-name="Warstwa 2" xmlns="http://www.w3.org/2000/svg" viewBox="0 0 1949.8 651.5">
  <defs>
    <style>
      .cls-1 {
        stroke: #000;
        stroke-miterlimit: 10;
        stroke-width: 14px;
      }

      .cls-1, .cls-2 {
        fill: #fff;
      }

      .cls-3 {
        fill: #a57449;
      }

      .cls-4 {
        fill: #e5bf7f;
      }
    </style>
  </defs>
  <g id="Warstwa_1-2" data-name="Warstwa 1">
    <g>
      <path d="M508.07,127.69c-.09-.11-.18-.21-.27-.32.1.22.2.43.3.65-.01-.11-.02-.22-.03-.33Z"/>
      <path d="M423.64,180.06h-.01s-.01.08-.02.12c.01-.04.02-.08.03-.12Z"/>
      <path d="M422.03,193.43c.15-4.42.84-8.84,1.58-13.26-1.14,4.19-2.11,8.92-1.58,13.26Z"/>
      <path d="M652.69,148.73c.4.27.79.41,1.19.11-.29-.04-.57-.06-.86-.11-.12,0-.23,0-.33,0Z"/>
      <path d="M652.05,148.43c.06.24.22.3.64.31-.14-.09-.27-.2-.41-.31h-.23Z"/>
      <path d="M754.63,146.85c-.07-.36-.16-.74-.24-1.11h-.38c.23.37.42.74.62,1.11Z"/>
      <path class="cls-3" d="M386.22,67.36c-28.06,11.19-32.01,17.84-35.35,28.44-10.21,32.43.28,40.15-23.76,58.77-16.51,10-28.78,11.73-48.44,6.52,6.59-5.81,14.41-13.02,19.83-19.83,9.45-11.88,11.61-22.33,17.63-30.85,11.85-16.76,48.02-44.94,70.08-43.06Z"/>
      <path class="cls-4" d="M619.6,50.78c.63.27,1.62-.28,2.2,0,.24.12-.23,3.21.03,4.42l2.18-2.22c.45.36,1.77-.36,2.2,0l6.61,17.63c-2.78.15-7.48-2.51-12.05-2.28-17.26.89-15.43,20.41-12.19,33.12-10.7-2.17-13.87-17.76-17.63-26.44-.7-1.62-1.92-3.64-2.2-4.41-.26-.71-1.96-1.46-2.2-2.2l-2.2-2.2c-.34-1.65-.35-7.21,0-8.81,3.75-17.04,22.45-12,35.25-6.61Z"/>
      <path class="cls-3" d="M698.92,194c1.99,2.26,3.2,3.75,4.41,6.61-5.34-11.92-21.67,3.81-25.48,4.44-7.4,1.23-14.95-4.26-23.6-1.78-7.03,2.02-21.19,30.29-14.82,3.94,17.9-11.92,37.54-20.24,59.49-13.22Z"/>
      <path class="cls-1" d="M688.1,221.92c-3.85-2.42-25.72-16.02-28.61-16.58-2.02-.4-7.71-.58-9.87-.26-14.82,2.24-21.88,17.05-15.47,28.54,2.76,4.94,39.08,24.06,47.22,29.74,49.87,34.77,120.36,116.9,129.14,172.17,9.26,58.29-28.66,97.35-89.98,110.46,4.22,15.11,8.37,30.45,11.67,46.65,11.45-3.21,22.48-6.96,32.99-11.32,43.4-18.01,80.44-52.43,90.15-94.5,23.54-102.05-79.08-209.46-167.24-264.9Z"/>
      <polygon class="cls-2" points="710.87 199.09 703.82 190.9 689.82 179.09 677.28 167.09 654.11 146.03 644.21 132.52 669.39 132.42 700.49 128.23 688.49 117.02 673.16 92.35 661.16 58.42 645.49 28.42 631.08 12.45 613.82 6.42 584.49 6.42 560.99 17.75 543.16 17.75 489.82 23.09 445.16 44.42 417.82 36.42 395.27 30.42 338.18 38.77 315.16 75.75 293.16 128.23 266.49 160.42 275.82 168.42 304.49 169.75 333.18 155.75 351.16 135.95 359.82 146.03 375.16 146.03 395.27 153.75 402.52 181.09 391.82 399.09 369.16 509.69 354.49 574.09 409.4 580.1 479.82 584.42 637.06 544.04 609.62 504.13 586.49 475.09 573.82 444.43 566.49 405.33 569.16 371.09 599.44 386.45 587.16 360.22 578.4 343.09 566.49 330.42 552.49 317.87 533.58 304.42 503.39 265.22 487.04 236.42 490.82 223.73 503.39 226.92 516.49 240.18 548.49 253.75 616.83 268.36 643.68 275.1 665.09 269.09 689.82 258.05 696.49 240.18 710.87 232.33 715.16 213.09 710.87 199.09"/>
      <polygon class="cls-2" points="523.82 265.22 549.82 293.75 570.49 326.42 583.82 356.42 599.44 386.45 616.83 405.33 631.08 411.57 644.21 411.47 657.44 405.33 665.09 397.69 669.39 386.45 669.39 375.09 665.09 360.22 657.44 343.09 648.49 321.75 622.73 290.83 590.2 275.1 533.79 257.09 516.49 252.42 523.82 265.22"/>
      <path d="M527.26,119.37l1.72,18.2c15.42-27.12-10.41-61.36-39.95-45.54-30.82,16.51-8.95,68.13,25.6,50.32l-7.96-.77c12.65-6.81,15.43-22.12,8.64-34.18-2.43-4.31-8.08-5.43-9.43-9.71,11.1,2,19.14,10.83,21.38,21.69ZM501.44,116.41c-6.47,7.09-20.02-.3-13.76-9.76,6.89-10.42,20.84,2,13.76,9.76ZM409.4,509.61s-.18-.02-.46-.06c.27.15.44.19.46.06ZM656.65,143.15c20.59,1.99,45.55,2.02,59.02-15.93-19.71-11.21-32.09-27.6-41.47-47.89-9.05-19.59-10.91-38.86-25.5-55.87-18.15-21.18-47.29-28.88-73.87-19.55-5.27,1.85-16.5,10.15-18.23,10.55-2.41.56-6.09-1.42-9.19-1.41-30.85.04-52.74.58-81.71,12.57-4.68,1.94-19.59,11.22-22.16,11.46-3.08.3-28.67-9.72-36.8-10.99-18.59-2.92-42.43-1.57-59.45,7.16-53.82,27.62-39.49,100.25-92.71,129.05,29.05,25,78.36,18.12,98.12-15.12,14.25,17.21,43.38-4.43,44.87,26.56,1.18,24.43-4.34,55.93-5.77,81.13-3.06,54.07-1.12,119.46-13.87,171.21-1.21,4.92-33.15,149.27-37.4,151.26.2.37,54.77,3.68,60,4.33-3.37-1.92-22.56-42.11-21-60,.33-3.76,11.51-78.96,12.75-83.93,5.71-22.84,4.9-36.95,8.88-65.02l9.79-185.68c6.25,7.35,7.44,15.46,14.31,23.17,4.67,5.24,13.34,12.78,20.77,12.74-10.72-10.1-19.62-24.61-25.8-38.02-6.45-13.99-7.65-30.28-22.47-39.76-14.86-9.51-25.36,2.5-36.66-7.57-16.37-14.58-.46-56.33,23.11-52.33,19.18,3.25,16.35,28.45,29.9,37.95,1.54-15.12,5.79-30.68,15.93-42.32l19.18-16.7c-24.57,5.91-46.38-8.15-71.05-6.45-30.16,2.07-47.98,25.25-54.97,52.71,15.87-23.06,33.32-41.2,63.03-43.09,3.18-.2-2.63-1.73-2.73,1.11-18.68-.3-31.66,19.09-36.29,36.49-2.77,10.4-.87,19.73-4.8,30.3-8.76,23.56-41.49,36.3-63.87,25.45,35.01-27.94,28.53-77.23,61.35-106.15,21.93-19.32,46.8-20.29,74.25-13.53,6.81,1.68,26.67,10.98,30.97,10.4,3.63-.49,14.47-8.72,19.5-10.95,39.57-17.58,78.06-19.74,119.89-8.66,22.74,6.03,48.6,18.97,54.6,43.51-28.92-13.59-32.42,17.62-22.62,37.8,6.33,13.03,31.09,36.26,42.53,46.83,9.93,9.18,21.35,16.92,31.15,26.29-19.32.33-37.53,2.28-50.26,18.33l-.81-6.37c-24.2,28.27,8.45,67.25,41.5,57.45-6.47,9.8-21.77,13.15-32.92,14.14-34.42,3.04-69.42-11.05-99.54-26.1-10.91-5.45-40.76-25.7-48.97-27.6-31.53-7.29-14.77,30.45-7.68,44.37,18.07,35.46,49.68,60.66,82.25,82.09l15.89,35.95c-28.4-23.25-55-48.67-80.58-74.97-11.51-11.83-9.33-10.81-23.14-19.94-14.44-9.55-26.15-18.64-38.25-31.14,7.78,17.14,22.26,31.96,35.07,45.49l-.77,2.36c-3.93-2.67-8.3-4.81-12.78-6.36-2.13-.74-4.61-3.28-3.97.77,12.94,13.85,26.63,28.39,37.31,44.07,25.86,37.98,42.35,167.18,58.49,209.89,2.74.4-3.15-84.62-3.29-86.38-1.73-22.24-7.01-44.58-8.02-66.98l1.64-18.41c6.26,45.46,23.23,88.34,43.1,129.23l-1.7-3.53c.21.16,1.74,3.85,1.94,3.99.14,0,3.46,7.84,3.65,7.84.44.07,8.58,18.7,9.01,18.76,8.32,1.14,21.36-8.15,29.75-8.21.02-.09-13.82-19.13-18.98-25.06-2.81-3.22-15.86-14.71-21.51-23.75-18.84-30.18-21.95-58.9-24.48-94.5,7.96,9.78,21.57,11.99,30.87,17.78,14.96,9.32,16.98,19.52,39.95,17.14,51.22-5.3,28.67-72.53,8.01-98.61l-26.18-38.42c23.08,3.11,53.82.15,71.05-17.5,5.52-5.66,7.28-13.33,10.81-18.72,2.87-4.39,7.35-4.06,10.75-13.97,13.41-39.06-39.37-61.84-60.7-86.25ZM622.42,29.01c-7.47-2.11-9.32.35-14.1-.24-3.56-.44-19.52-7.47-27.47-9.29-7.74-1.77,5.06-5.86,8.08-6.26,70.38-9.4,59.16,70.11,94.83,106.79-3.27,3.05-18.98-18.99-20.46-21.8-12.46-23.57-10.01-60.48-40.89-69.2ZM619.12,97.71c-7.37-6.62,4.78-17.53,11.59-10.8,6.43,6.36-3.81,17.79-11.59,10.8ZM647.87,135.95l-13.56-12.71c18.51-5.3,15.13-32.96,0-42.31l6.39.79.76-3.16c16.1,12.7,15.19,40.52,6.41,57.39ZM560.89,317.87c-23.71-12.22-66.02-54.03-62.21-82.2.29-2.18.93-4.79,3.18-2.37,5.55,28.58,31.4,49.41,49.43,71.05,1.47,1.77,10.72,12.3,9.6,13.52ZM663.41,392.45c-2.81,6.97-16.02,13.42-23.3,13.08-40.25-1.9-56.03-64.99-72.15-93.91l-34.16-46.39c34.69,4,57.9,27.97,81.35,51.05,0-4.72-5.08-9.62-2.4-14.34,27.52,5.61,60.16,66.94,50.67,90.52ZM666.23,238.9c-5.9,3.49-20.08-.4-20.74-8.78,6.87,7.68,21.31,10.5,20.74-3.19,5.19,1.37,3.1,10.14,0,11.97ZM684.52,210.94c-8.16,1.6-11.69-3.01-17.54-3.29-8.09-.39-18.68,7.18-18.34,16.08-6.73-3.25-5.47-9.09-2.91-14.9,8.68-19.68,61.5-28,65.14.54-12.87-15.49-18.61.05-26.35,1.57ZM402.52,138.43l-14.34-20.72c-1.85,4.05,11.32,23.78,14.34,20.72ZM622.73,360.22l14.33,41.48c-.53-14.2-4.31-30.9-14.33-41.48Z"/>
      <path class="cls-1" d="M732.2,592.64c-3.3-16.2-7.45-31.54-11.67-46.65-2.53.54-5.1,1.04-7.71,1.5-127.88,22.17-299.17-35.19-426.32-83.54-7.7,29.44-18.27,55.95-24.29,85.24,133.59,37.45,331.38,82.33,469.99,43.46Z"/>
      <polygon class="cls-2" points="190.1 468.54 214.05 426.42 228.45 431.31 298.62 468.54 275.82 550.42 181.7 514.02 173.16 507.31 190.1 468.54"/>
      <g>
        <path class="cls-2" d="M274.51,469.62l-4.5,14.07-8.15,38.15,1.73,5.65c4.48-20.6,9.32-41.22,14.7-61.93l-3.78,4.05Z"/>
        <path class="cls-2" d="M425.59,491.29l-12.06-26.14-15.04-16.8-15.59-6.3-20.2-1.55-8.07-8.43-18.72-5.78-19.09,18.42-18.25,8.82-12.54,3.76-7.74,8.3c-5.38,20.7-10.23,41.32-14.7,61.93l9.03,29.57,12.2,7.03,11.33,23.67,13.33,9,7.22,4.09,19.58,2.16,15.53,8.76,15.47-8.21,12.67-25.83,15.61-1.6,22.65-16.97,8.88-33.53-1.51-34.33Z"/>
        <path d="M257.73,482.4c-3.9,14.72-4.63,17.77-6.09,28.89l-.12,15.36c.67,12.83-.23,14.57,6.16,28.91,7.42-36.41,15.66-72.78,25.82-109.46,1-2,5-4,6-6,.24-.48.36-.96.41-1.44-13.49,5.96-26.62,29.98-32.18,43.73"/>
        <path d="M438.63,512.99c-.25-.04-.48-.09-.73-.14-2.11-.35-1.41-4.57-1.06-6.69-.35,2.11-1.05,6.34,1.06,6.69.25.04.49.09.73.14,0-.14-.01-.27-.02-.41-.48-.19-.97-.4-1.46-.64,1.41-21.3-4.97-57.1-27.56-65.76-5.95-2.28-22.49-2.91-24.7-4.93-1.02-.93-.07-6-1.83-8.51-10.19-14.53-40.92-18.65-55.84-9.51-6.09,3.73-12.61,14.97-13.56,15.35-2.6,1.06-11.16-2.06-16.06-1.81-2.67.14-5.23.8-7.68,1.89-.05.48-.17.96-.41,1.44-1,2-5,4-6,6-10.16,36.69-18.41,73.05-25.82,109.46.37.83.77,1.65,1.21,2.48,7.72,14.4,22.98,13.18,25.54,16.11,1.04,1.19.76,21.65,9.16,29.81,10.12,9.82,20.79,3.72,29.34,6.46,6.88,2.21,10.9,13.1,23.17,15.1,27.77,4.52,30.78-29.5,36.6-32.88.81-.47,12.72,1.7,18.71.03,12.66-3.52,21.3-18.06,26.13-29.38.76-1.78,1.21-3.86,1.58-5.98-.34.55-.66,1.1-1.03,1.65.36-.55.68-1.1,1.03-1.65,1-5.63,1.55-11.52,6.17-12.84,3.42-9.86,4.12-20.07,3.34-31.49ZM411.79,552.29c-4.69,10.64-12.33,22-25.6,17.78l10.69-64.66c-24.11,17.04-18.17,82.28-40.83,95.29-17.02,9.78-22.57-7.63-21.64-22.04,2.09-32.45,13.62-65.35,24.89-95.5-29.09,26.03-33.68,71.42-40.7,107.82-7.6-.76-11.48-.94-16.15-7.12-16.22-21.46,8.19-87.92,17.45-111.79-24.15,17.72-28.2,53.88-34.06,81.4-34.59-9.3-7.03-94.12,15.13-95.51,4.9-.31,13.41,2.88,16.06,1.81,4.48-1.81,10.16-23.54,32.6-21.83,25.35,1.93,23.21,22.77,28.26,25.15,2.54,1.2,12.08-.64,17.84.78,29.37,7.23,25.56,66.92,16.07,88.43Z"/>
      </g>
      <g>
        <polygon class="cls-2" points="750.11 488.9 723.07 475.6 703.53 459.04 678.16 452.86 664.25 461.05 651.56 474.08 635.65 469.72 607.53 481.18 599.04 517.32 598.38 550.26 599.89 579.69 612.18 598.09 631.99 606.89 643.49 609.84 650.95 625.15 663.03 639.55 681.85 635.58 688.31 630.24 705.68 631.69 724.08 625.94 728.6 609.83 743.71 605.05 757.26 596.01 769.44 575.1 766.67 521.1 750.11 488.9"/>
        <path d="M588.76,537.79l-.58.03c.02.08.04.17.05.25,1.17,9.08,2.85,19.59,4.82,28.17.36,4.22.52,8.45.31,12.7.21-4.25.05-8.48-.31-12.7-.07,1.01-.18,2.02-.34,3.01h.06c-.92,15.93,5.82,35.14,20.93,42.4,6.23,2.99,21.52,4.07,24.58,6.16,3.82,2.61,6.85,24.97,21.09,31.47,17.57,8.01,23.96-8.2,31.22-10,3.26-.81,15.08,6.53,28.17,1.72,11.96-4.39,15.41-23.23,17.1-24.38,2.05-1.39,9.11-.47,13.24-2.04,12.7-4.84,18.74-11.4,23.21-24.26,2.19-6.3,3.13-22.34,5.94-26.88l.5-.69c.08-.09.49-17.71.57-17.78-.54-10.6-.33-6.41-2.04-16.18-.04-.25-.03-.52-.04-.77l-.91.05c-5.2-21.32-14-49.87-35.39-57.38-5.68-1.99-15.37-1.22-19.24-3.74-2.16-1.41-4.06-7.42-7.06-10.07-13.96-12.31-35.88-16.45-52.67-7.06-4.33,2.43-7.75,8.85-10.78,9.73-3.48,1.01-14.39-1.89-22.01-.58-8.09,1.39-13.16,6.19-19.93,9.84-.13-.02-.27-.08-.41-.14-.26.56-.53,1.12-.8,1.69.37-.52.74-1.06,1.11-1.57-.37.52-.74,1.05-1.11,1.57-3.49,7.4-7.44,15.44-12.24,21.9-.19.48-.39.94-.56,1.43-3.08,12.22-7.15,23.38-6.69,42.76l.18,1.32M627.42,481.06c16.75-9.89,25.88,4.56,29.89,3.41,5.97-1.72,12.41-32.35,40.11-15.62,7.7,4.65,17.85,21.55,20.27,22.76,1.48.74,9.8-2.27,14.56-1.83,25.72,2.4,33.27,75.16,22.97,93.71-2.57,4.63-8.28,10.66-14.11,9.87l-1.91-37.24c-.33-6.44-10.18-30.32-13.86-37.12-2.4-4.44-7.32-11.79-11.41-14.76,9.01,23.72,23.45,97.57,1.45,114.33-4.01,3.06-14.75,6.04-17.89,1.63-1.34-1.88.61-37.94-.28-46.19-1.6-14.82-6.37-34.81-12.14-48.57-1.71-4.08-5.46-12.51-9.28-14.73,5.03,30.06,13.02,60.18,8.9,90.93-5.31,39.65-28.59,33.19-33.78-2.59-3.91-26.94.02-47.84-12.33-74.69-1.56-3.38,1-6.14-5.35-4.7l3.69,72.23c-14.23,4.04-24.83-7.98-27.67-20.63-5.09-22.72-4.64-76.75,18.15-90.21Z"/>
      </g>
      <path d="M216.19,433.72l-36.68,75.04,93.65,37.44c3.32,1.62-8.12,11.85-18.59,8.21-26.79-12.5-54.15-18.4-79.89-34.97-3.49-2.24-7.99-6.94-7.28-11.43l38.99-81.05c3.23-5.77,9.83-5.54,15.27-3.62,9.49,3.34,58.54,27.93,65.72,33.34,6.23,4.69-2.34,10.69-6.02,8.89l-65.17-31.86Z"/>
      <path class="cls-2" d="M37.84,385.01l139.68,69.31c1.01,3.25.56,5.74-3.13,6.38l-140.02-67.6c-21.65,23.6-50.54-15.82-23.25-29.29,14.21-7.01,30.35,6.14,26.72,21.19ZM9.58,379.36c-2.84,10.96,14.3,16.83,19.02,5.89,5.43-12.58-15.09-21.1-19.02-5.89Z"/>
      <path class="cls-2" d="M45.03,461.69c-1.24.94,1.26,16.81-13.88,21.36-28.33,8.51-33.88-36.82-6.29-37.34,11.38-.21,11.83,6.32,16.42,7.78,2.01.64,34.75-3.37,41.99-3.2,18.51.43,40.33,3.37,57.97,9.02,4.44,1.42,37.99,11.58,26.01,18.65-4.16,2.46-14.02-4.87-18.58-6.51-26.12-9.4-54.12-13.1-81.74-11.63-2.76.15-21.04,1.22-21.92,1.88ZM28.58,474.62c12.1-3.62,7.36-22.49-5.73-19.54-12.6,2.84-7.36,23.47,5.73,19.54Z"/>
      <path class="cls-2" d="M186.77,437.75c.92,2.44-2.16,5.87-4.54,5.8-6.1-.16-28.85-16.17-34.79-20.72-17.04-13.06-31.44-29.7-44-46.96-2.91-3.99-10.91-19.31-13.02-21.05-5.67-4.68-15.19-.99-19.56-14.8-7.56-23.9,30.09-35.52,36.9-10.71,3.57,13.01-8.69,20.97-8.67,22.53.02,1.28,11.16,17.98,12.91,20.44,13.22,18.58,30.69,36.58,49.45,49.66,3.81,2.66,24.59,13.9,25.31,15.81ZM79.49,331.81c-3.59,12.48,16.6,18.5,19.84,4.32,2.47-10.82-16.09-17.36-19.84-4.32Z"/>
      <path class="cls-2" d="M84.64,487.54c.91,0,13.19-6.07,16.84-7.06,15.44-4.22,38.34-3.99,53.17,2.64,3.5,1.57,11.5,5.79,5.34,9.73-3.12,2-18.55-4.24-24.04-5.22-8.9-1.59-20.91-1.13-29.7,1.01-2.17.53-14.03,4.26-14.02,5.74,0,.55,3.63,5.44,3.47,10.25-.83,23.73-33.25,25.39-37.74,4.46-2.86-13.33,6.79-23.58,19.8-23.51,2.76.01,5.26,1.97,6.89,1.95ZM66.56,503.53c-1.8,8.23,10.47,15.2,16.45,8.79,12.62-13.55-12.54-26.6-16.45-8.79Z"/>
      <path class="cls-2" d="M144.79,362.63c-.81-.95-9.3-.18-14.57-8.36-15.41-23.9,28.65-44.36,32.89-15.21,2.13,14.61-9.11,17.69-9.97,21.72-.29,1.38,3.18,13.42,4.02,15.6,5.13,13.37,14.11,24.14,25.11,33.19,3.77,3.1,14.13,7.05,13.32,11.81-1.3,7.64-10.52,1.05-14.01-1.12-13.24-8.26-24.67-22.3-30.93-36.42-1.87-4.23-5.15-20.37-5.87-21.21ZM147.48,352.84c9.44-3.69,9.12-19.95-2.35-19.22-11.94.76-10.86,24.38,2.35,19.22Z"/>
      <path d="M232.52,515.8c1.11,2.65-1.03,5.46-4.37,4.76-11.42-2.39-26.98-13-38.91-16.17-2.29-1.68-1.28-5.15,1.25-5.9,2.19-.65,41.15,15.19,42.03,17.3Z"/>
      <path d="M236.36,522.47c1.38-6.07,14.45-.4,12.93,4.18-1.61,4.84-13.88,0-12.93-4.18Z"/>
    </g>
    <g>
      <g>
        <path class="cls-2" d="M962.93,521.71V212.51h58.4v309.2h-58.4Z"/>
        <path class="cls-2" d="M1214.58,528.15c-19.47,0-38.01-3.47-55.61-10.41-17.61-6.94-33.17-17.21-46.7-30.81-13.53-13.6-24.19-30.42-31.99-50.46-7.8-20.04-11.7-43.16-11.7-69.36,0-34.21,6.55-63.31,19.65-87.29,13.1-23.98,30.71-42.26,52.82-54.86,22.12-12.59,46.63-18.9,73.54-18.9,39.79,0,71.07,9.23,93.83,27.7,22.76,18.47,38.01,44.59,45.74,78.37l-59.69,8.59c-5.58-18.04-14.71-32.46-27.38-43.27-12.67-10.81-28.88-16.28-48.63-16.43-19.61-.29-35.93,3.94-48.96,12.67-13.03,8.73-22.8,21.12-29.31,37.15-6.52,16.03-9.77,34.79-9.77,56.26s3.25,40.08,9.77,55.83c6.51,15.75,16.28,27.99,29.31,36.72,13.02,8.73,29.34,13.24,48.96,13.53,13.31.29,25.37-2,36.18-6.87,10.81-4.86,19.93-12.52,27.38-22.98,7.44-10.45,12.74-23.83,15.89-40.15h-48.96v-45.09h111.23c.29,1.86.5,5.15.64,9.88.14,4.72.21,7.44.21,8.16,0,29.63-6.01,55.9-18.04,78.8-12.02,22.91-28.99,40.83-50.89,53.79-21.9,12.96-47.74,19.43-77.52,19.43Z"/>
        <path class="cls-2" d="M1532.8,528.15c-19.47,0-38.01-3.47-55.61-10.41-17.61-6.94-33.17-17.21-46.7-30.81-13.53-13.6-24.19-30.42-31.99-50.46-7.8-20.04-11.7-43.16-11.7-69.36,0-34.21,6.55-63.31,19.65-87.29,13.1-23.98,30.71-42.26,52.82-54.86,22.12-12.59,46.63-18.9,73.54-18.9,39.79,0,71.07,9.23,93.83,27.7,22.76,18.47,38.01,44.59,45.74,78.37l-59.69,8.59c-5.58-18.04-14.71-32.46-27.38-43.27-12.67-10.81-28.88-16.28-48.63-16.43-19.61-.29-35.93,3.94-48.96,12.67-13.03,8.73-22.8,21.12-29.31,37.15-6.52,16.03-9.77,34.79-9.77,56.26s3.25,40.08,9.77,55.83c6.51,15.75,16.28,27.99,29.31,36.72,13.02,8.73,29.34,13.24,48.96,13.53,13.31.29,25.37-2,36.18-6.87,10.81-4.86,19.93-12.52,27.38-22.98,7.44-10.45,12.74-23.83,15.89-40.15h-48.96v-45.09h111.23c.29,1.86.5,5.15.64,9.88.14,4.72.21,7.44.21,8.16,0,29.63-6.01,55.9-18.04,78.8-12.02,22.91-28.99,40.83-50.89,53.79-21.9,12.96-47.74,19.43-77.52,19.43Z"/>
        <path class="cls-2" d="M1784.89,521.71v-125.83l-105.64-183.37h68.28l66.99,116.38,66.99-116.38h68.28l-105.64,183.37v125.83h-59.26Z"/>
      </g>
      <g>
        <path class="cls-2" d="M1008.01,146.57h-32.76l-7.43,20.27h-6.39l27.31-72.17h5.8l27.31,72.17h-6.34l-7.48-20.27ZM977.13,141.41h28.95l-14.47-39.3-14.47,39.3Z"/>
        <path class="cls-2" d="M1038.54,137.45v29.39h-6.1v-72.17h24.58c7.5,0,13.42,1.92,17.77,5.75,4.34,3.83,6.52,9.1,6.52,15.81s-2.09,12-6.27,15.69c-4.18,3.68-10.24,5.53-18.17,5.53h-18.34ZM1038.54,132.29h18.49c5.91,0,10.42-1.41,13.53-4.22,3.11-2.81,4.66-6.73,4.66-11.77s-1.55-8.98-4.63-11.94c-3.09-2.96-7.48-4.48-13.16-4.54h-18.88v32.46Z"/>
        <path class="cls-2" d="M1127.06,146.57h-32.76l-7.43,20.27h-6.39l27.31-72.17h5.8l27.31,72.17h-6.34l-7.48-20.27ZM1096.18,141.41h28.95l-14.47-39.3-14.47,39.3Z"/>
        <path class="cls-2" d="M1202.6,144.34c-.83,7.6-3.54,13.42-8.15,17.45-4.61,4.03-10.75,6.05-18.41,6.05-5.35,0-10.09-1.34-14.2-4.01s-7.29-6.47-9.54-11.38c-2.25-4.91-3.39-10.52-3.42-16.83v-9.37c0-6.41,1.12-12.09,3.37-17.05,2.25-4.96,5.48-8.78,9.69-11.47,4.21-2.69,9.06-4.04,14.55-4.04,7.73,0,13.84,2.08,18.31,6.25,4.48,4.16,7.08,9.93,7.81,17.3h-6.15c-1.52-12.26-8.18-18.39-19.97-18.39-6.54,0-11.76,2.45-15.64,7.34-3.88,4.89-5.82,11.66-5.82,20.29v8.83c0,8.33,1.89,14.98,5.68,19.94,3.78,4.96,8.9,7.44,15.34,7.44s11.18-1.53,14.42-4.58c3.24-3.06,5.24-7.64,6-13.75h6.15Z"/>
        <path class="cls-2" d="M1270.9,166.84h-6.15v-34.6h-41.24v34.6h-6.1v-72.17h6.1v32.42h41.24v-32.42h6.15v72.17Z"/>
        <path class="cls-2" d="M1329.09,132.24h-33.75v29.44h38.81v5.15h-44.91v-72.17h44.66v5.15h-38.56v27.26h33.75v5.15Z"/>
      </g>
    </g>
  </g>
</svg>